<svg width="129" height="38" viewBox="0 0 129 38" fill="none" xmlns="http://www.w3.org/2000/svg">
<path d="M105.299 35.7647H50.2509C49.2152 35.7647 48.375 34.9162 48.375 33.8703C48.375 32.8244 49.2152 31.9759 50.2509 31.9759H105.299C106.335 31.9759 107.175 32.8244 107.175 33.8703C107.177 34.9162 106.335 35.7647 105.299 35.7647Z" fill="#342347"/>
<path d="M64.5413 2.23529H59.4326C59.3023 2.23529 59.1836 2.31391 59.1371 2.43645L49.6714 26.2014C49.5876 26.4095 49.7436 26.6338 49.967 26.6338H54.2611C54.3938 26.6338 54.5125 26.5528 54.559 26.4303L56.6909 20.8833H67.0061L69.138 26.4303C69.1846 26.5528 69.3033 26.6338 69.4359 26.6338H73.7696C73.993 26.6338 74.1466 26.4095 74.0675 26.2037L64.8369 2.43877C64.7904 2.31622 64.6717 2.23529 64.5413 2.23529ZM58.3038 16.7005L61.5483 8.24011C61.653 7.96727 62.0394 7.96727 62.1441 8.24011L65.3909 16.7005H58.3038Z" fill="#342347"/>
<path d="M77.112 9.20661H81.036C81.2129 9.20661 81.3549 9.34766 81.3549 9.52339V12.6911C81.7063 11.5535 82.3138 10.6587 83.1796 10.0066C84.0454 9.35691 85.1323 9.03088 86.4426 9.03088H87.0012C87.1781 9.03088 87.3201 9.17193 87.3201 9.34766V12.8969C87.3201 13.0726 87.1781 13.2137 87.0012 13.2137H85.7421C84.2688 13.2137 83.1703 13.5744 82.4441 14.2935C81.7179 15.0126 81.3572 16.1063 81.3572 17.5699V26.3147C81.3572 26.4904 81.2152 26.6315 81.0383 26.6315H77.1143C76.9374 26.6315 76.7954 26.4904 76.7954 26.3147V9.52339C76.7931 9.34766 76.9351 9.20661 77.112 9.20661Z" fill="#342347"/>
<path d="M104.897 20.5341C105.085 20.5341 105.234 20.696 105.213 20.881C104.995 22.8695 104.215 24.3678 102.877 25.3805C101.462 26.4488 99.6205 26.9852 97.3513 26.9852C96.1829 26.9852 95.0821 26.7748 94.0533 26.3586C93.0246 25.9424 92.1285 25.3366 91.3698 24.5458C90.6087 23.7551 90.0129 22.8024 89.58 21.6879C89.1471 20.5735 88.9307 19.3179 88.9307 17.9237C88.9307 16.5294 89.1471 15.2739 89.58 14.1594C90.0129 13.0449 90.6087 12.0923 91.3698 11.3015C92.1309 10.5107 93.0246 9.90721 94.0533 9.4887C95.0821 9.07019 96.1829 8.86209 97.3513 8.86209C99.6205 8.86209 101.462 9.39621 102.877 10.4645C104.215 11.4749 104.995 12.9755 105.213 14.964C105.234 15.149 105.083 15.3109 104.897 15.3109H100.945C100.796 15.3109 100.67 15.2045 100.638 15.0588C100.477 14.3166 100.158 13.7224 99.6857 13.2715C99.1597 12.772 98.4173 12.5223 97.4584 12.5223H97.2489C95.9385 12.5223 94.9866 13.0564 94.3885 14.1247C93.7903 15.1929 93.4947 16.46 93.4947 17.9237C93.4947 19.3873 93.7927 20.6544 94.3885 21.7226C94.9843 22.7909 95.9385 23.3273 97.2489 23.3273H97.4584C98.4173 23.3273 99.1597 23.0776 99.6857 22.5781C100.158 22.1296 100.477 21.533 100.638 20.7908C100.67 20.6451 100.794 20.5388 100.945 20.5388H104.897V20.5341Z" fill="#342347"/>
<ellipse cx="19.9053" cy="3.58044" rx="1.90525" ry="1.8928" fill="#D14C62"/>
<path d="M14.1709 20.6157C15.2231 20.6157 16.0763 19.7682 16.0766 18.7228C16.0769 17.6775 15.2241 16.83 14.1719 16.83C13.1196 16.83 12.2664 17.6775 12.2661 18.7228C12.2658 19.7682 13.1186 20.6157 14.1709 20.6157Z" fill="#C34164"/>
<path d="M17.3452 18.7228C17.3452 17.6775 18.1927 16.83 19.238 16.83H30.8396C31.885 16.83 32.7324 17.6775 32.7324 18.7228C32.7324 19.7682 31.885 20.6157 30.8396 20.6157H19.238C18.1927 20.6157 17.3452 19.7682 17.3452 18.7228Z" fill="#C34164"/>
<path d="M29.9941 28.1868C31.0464 28.1868 31.8994 27.3394 31.8994 26.294C31.8994 25.2487 31.0464 24.4012 29.9941 24.4012C28.9419 24.4012 28.0889 25.2487 28.0889 26.294C28.0889 27.3394 28.9419 28.1868 29.9941 28.1868Z" fill="#8D3C8E"/>
<rect x="3.95557" y="24.4012" width="22.863" height="3.7856" rx="1.8928" fill="#9B3288"/>
<path d="M1.90529 35.7581C2.95755 35.7581 3.81057 34.9107 3.81057 33.8653C3.81057 32.8199 2.95754 31.9725 1.90528 31.9725C0.853024 31.9725 7.14206e-07 32.8199 1.59523e-06 33.8653C2.47625e-06 34.9107 0.853027 35.7581 1.90529 35.7581Z" fill="#844492"/>
<path d="M5.08057 33.8653C5.08057 32.8199 5.928 31.9725 6.97337 31.9725H37.4823C38.5277 31.9725 39.3751 32.8199 39.3751 33.8653C39.3751 34.9106 38.5277 35.7581 37.4823 35.7581H6.97337C5.928 35.7581 5.08057 34.9106 5.08057 33.8653Z" fill="#844492"/>
<rect x="11.5767" y="9.25883" width="13.9719" height="3.7856" rx="1.8928" fill="#D14C62"/>
</svg>
