<?xml version="1.0" encoding="utf-8"?>
<!-- Generator: Adobe Illustrator 19.1.0, SVG Export Plug-In . SVG Version: 6.00 Build 0)  -->
<svg version="1.1" id="Layer_1" xmlns="http://www.w3.org/2000/svg" xmlns:xlink="http://www.w3.org/1999/xlink" x="0px" y="0px"
	 viewBox="0 0 399.3 132.7" style="enable-background:new 0 0 399.3 132.7;" xml:space="preserve">
<style type="text/css">
	.st0{fill:#5A7ABC;}
	.st1{fill:#E11D3B;}
	.st2{fill:#F6C429;}
	.st3{fill:#3CB65A;}
</style>
<path class="st0" d="M0,49.5c0.7-3.4,1-7,2-10.3C6.4,24.3,15.8,13.5,29.8,6.9c13.1-6.2,26.5-6.5,40.1-1.5c5,1.8,11.5,6,16,10.5
	c-3.3,2.9-6.6,5.8-9.9,8.7c-2.8-1.7-6.1-4.2-9.8-5.8c-11.3-5-22.6-4.4-33.2,1.9c-11.9,7.1-17.9,17.9-18.1,31.8
	C14.7,71,27.8,86.6,45.7,89.2c9.3,1.3,18,0.1,26-5.1c7.9-5.2,12-12.6,13-22.3c-5.6,0-11.1,0-16.6,0c-5.4,0-10.9,0-16.4,0
	c0-4.6,0-8.9,0-13.4c15.5,0,30.9,0,46.5,0c1.9,17.3-1.4,32.7-15.4,44.4c-10.2,8.5-22.1,11.4-35,10.4c-15-1.2-27.5-7.8-36.9-19.6
	c-6-7.5-9.6-16.2-10.5-25.8c-0.1-0.5-0.2-1-0.4-1.5C0,54,0,51.8,0,49.5z"/>
<path class="st1" d="M399.3,62.7c-4,1.6-8,3.1-12,4.8c-10.2,4.2-20.3,8.4-30.5,12.6c-0.4,0.2-0.8,0.4-1.2,0.6c4.9,12,23,14.3,31.9,1
	c3.6,2.4,7.2,4.8,11,7.3c-2.3,3.4-5.1,6.3-8.4,8.6c-16,11.2-40,6.3-48.2-13.4c-5.6-13.4-2.3-29.1,7.9-38.5
	c12.3-11.4,32.3-9.8,42.3,3.7c2.7,3.6,4.4,8,6.5,12c0.2,0.3,0.4,0.7,0.6,1C399.3,62.4,399.3,62.6,399.3,62.7z M382.4,57.7
	c-2.4-5.7-9.5-8.5-16.2-6.6c-8.2,2.3-14.2,10.8-13,18.7C363,65.8,372.7,61.8,382.4,57.7z"/>
<path class="st0" d="M249.1,113.6c4.2-1.7,8.1-3.4,12.1-5.1c1.8,3.6,4,6.6,7.3,8.8c10.2,6.8,23.9,1.3,26.3-10.7
	c0.7-3.4,0.6-7,0.9-11.1c-1,0.6-1.3,0.7-1.6,1c-6.3,6.4-13.9,7.9-22.4,6.1c-12.8-2.7-22.8-13.3-24.9-26.3
	c-2.8-17.1,7.5-33.2,24.4-37.4c8.5-2.1,16.4-0.5,22.8,5.9c0.2,0.2,0.5,0.4,1.2,0.9c0.1-2,0.2-3.6,0.3-5.4c4.4,0,8.7,0,13,0
	c0.1,0.3,0.2,0.5,0.2,0.8c0,20.2,0.1,40.3-0.1,60.5c-0.1,7.6-2.1,14.7-7,20.8c-5.5,6.9-13,9.6-21.4,10.2c-9.7,0.6-18.1-2.4-24.9-9.4
	C252.7,120.5,250.6,117.3,249.1,113.6z M296.5,71.5c0-4.7-1-9.1-3.7-13.1c-6-9-18.6-10.2-26.3-2.5c-6.3,6.4-7.9,16.5-4,24.6
	c4.5,9.2,15.4,13,24.1,8.3C293.4,85,296.1,78.8,296.5,71.5z"/>
<path class="st1" d="M168.9,70.8c0.3,17.8-13.6,32.3-31.7,32.6c-19,0.3-33.6-13.7-33.8-32c-0.2-18.5,13.9-33.1,32-33.2
	C154.7,38,168.8,51.7,168.9,70.8z M136.2,90.7c3.8,0.1,7.3-1,10.3-3.2c6.9-5,9.1-12,8.1-20.2c-1.3-11.3-12.3-18.8-23.2-15.8
	c-8.1,2.2-13.4,9.6-13.6,19C117.4,81.6,125.6,90.6,136.2,90.7z"/>
<path class="st2" d="M207.4,38.3c17.9-0.4,33.4,13.7,32.9,33.4c-0.4,17.6-14.2,32.1-33.4,31.7c-18.2-0.3-32.9-14.7-31.9-34.4
	C175.8,52.2,189.2,38.2,207.4,38.3z M226.1,70.9c0-5.3-1.6-10-5.1-14.1c-5.4-6.3-15.9-7.6-22.9-3.2c-8.7,5.5-11,17-7.3,25.8
	c4.1,9.5,14.2,13.7,23.6,9.9C221.5,86.5,226,79.3,226.1,70.9z"/>
<path class="st3" d="M318.8,5.4c4.7,0,9.2,0,14,0c0,32,0,63.9,0,95.9c-4.6,0-9.2,0-14,0C318.8,69.4,318.8,37.5,318.8,5.4z"/>
</svg>
